<svg width="150" height="35" viewBox="0 0 186 35" fill="none" xmlns="http://www.w3.org/2000/svg">
<path d="M11.4433 26.7213C11.4433 29.3091 10.9626 31.1944 10.0011 32.3888C9.03971 33.5831 7.57413 34.1803 5.62784 34.1803C3.70499 34.1803 2.28631 33.6651 1.37179 32.6347C0.457262 31.6042 0 29.7658 0 27.1194V6.08899C0 2.10773 1.87595 0.128805 5.62784 0.128805C7.55068 0.128805 9.00454 0.491803 9.97768 1.2178C10.9508 1.94379 11.4433 3.4192 11.4433 5.64403V26.7213Z" fill="white"/>
<path d="M36.5223 26.7213C36.5223 28.6066 36.2878 30.1054 35.8306 31.2178C35.3616 32.3302 34.7284 33.103 33.9194 33.5246C33.1104 33.9578 32.0318 34.1686 30.7069 34.1686C28.7489 34.1686 27.3302 33.6417 26.4508 32.5995C25.5715 31.5574 25.1142 29.7073 25.079 27.0609L24.9852 8.72365H20.7526C18.6657 8.72365 17.0945 8.39578 16.0511 7.72834C15.0076 7.06089 14.4799 5.88993 14.4799 4.20375C14.4799 3.1733 14.691 2.36534 15.1014 1.76815C15.5117 1.17096 16.1331 0.749414 16.9656 0.503512C17.798 0.257611 18.9001 0.128805 20.2954 0.128805H41.5874C43.4399 0.128805 44.7882 0.456674 45.6206 1.12412C46.4531 1.79157 46.8635 2.9274 46.8635 4.55503C46.8635 5.64403 46.6172 6.49883 46.1365 7.11944C45.6558 7.72834 45.0227 8.14988 44.2254 8.38407C43.4281 8.61827 42.3964 8.73536 41.1418 8.73536H36.5106V26.7213H36.5223Z" fill="white"/>
<path d="M60.3116 34.6487C58.7757 34.6136 57.5329 34.3794 56.6066 33.9227C55.6687 33.4778 54.9652 32.7283 54.4962 31.6979C54.0272 30.6674 53.7927 29.274 53.7927 27.541V6.35831C53.7927 4.59016 54.3086 3.14988 55.3404 2.02576C56.3721 0.901639 57.7439 0.351288 59.4557 0.351288C61.4607 0.351288 62.938 0.714285 63.8877 1.45199C64.8374 2.1897 65.3181 3.67681 65.3181 5.91335V25.9953H73.8888C75.8234 25.9953 77.1834 26.2763 77.9807 26.8501C78.7663 27.4239 79.1532 28.5831 79.1532 30.3513C79.1532 32.1546 78.7076 33.3255 77.8048 33.8525C76.902 34.3911 75.4364 34.6487 73.3964 34.6487H60.3116Z" fill="white"/>
<path d="M103.224 27.0375H94.8994V29.6956C94.8994 31.3934 94.4539 32.6464 93.5511 33.4543C92.6483 34.2506 91.1006 34.6604 88.8846 34.6604C87.9467 34.6604 87.1846 34.5316 86.5749 34.2623C85.9769 33.993 85.4493 33.548 84.9921 32.9157C84.5465 32.2834 84.2065 31.3583 83.9837 30.1405C83.7727 28.9227 83.5968 27.459 83.4796 25.7377C83.3623 24.0164 83.3037 21.8384 83.3037 19.2037C83.3037 16.897 83.5499 14.7892 84.0306 12.8689C84.5113 10.9485 85.1679 9.32084 85.9887 7.98595C86.8094 6.65105 87.7356 5.48009 88.7674 4.46136C89.7992 3.44262 90.9365 2.64637 92.1558 2.08431C93.3752 1.52225 94.5594 1.08899 95.7201 0.807963C96.8691 0.526933 98.0299 0.386417 99.2024 0.386417C100.609 0.386417 101.993 0.573771 103.365 0.960188C104.736 1.3466 106.12 2.00234 107.527 2.93911C108.934 3.87588 110.165 5.03513 111.208 6.41686C112.264 7.7986 113.12 9.60187 113.788 11.8033C114.456 14.0047 114.796 16.4754 114.796 19.2155C114.796 23.6183 114.644 26.8852 114.315 29.0047C113.999 31.1241 113.46 32.5995 112.709 33.4309C111.959 34.2623 110.798 34.6838 109.227 34.6838C107.023 34.6838 105.463 34.2857 104.561 33.4778C103.658 32.6815 103.212 31.4286 103.212 29.719V27.0375H103.224ZM99.1086 8.51288C97.6664 8.51288 96.6112 8.93443 95.9194 9.76581C95.2394 10.5972 94.8877 12.0843 94.8877 14.2155V20.1288H103.212V14.1218C103.212 12.7166 103.048 11.5925 102.708 10.7377C102.38 9.88291 101.911 9.30913 101.325 8.98127C100.762 8.67682 100.011 8.51288 99.1086 8.51288Z" fill="white"/>
<path d="M145.984 16.8267C149.091 18.6651 150.65 21.1124 150.65 24.192C150.65 25.5269 150.392 26.8033 149.876 28.0211C149.36 29.2389 148.587 30.3513 147.567 31.3466C146.547 32.3536 145.198 33.1382 143.533 33.7237C141.857 34.3091 139.969 34.6019 137.87 34.6019H126.239C124.199 34.6019 122.734 34.0866 121.854 33.0562C120.963 32.0258 120.53 30.1639 120.53 27.4941V6.31148C120.53 5.17564 120.729 4.16862 121.127 3.30211C121.526 2.4356 122.171 1.73302 123.062 1.19438C123.953 0.655738 125.008 0.398127 126.251 0.398127H137.73C141.071 0.433255 143.85 1.3466 146.078 3.12646C148.293 4.91803 149.407 7.21311 149.407 10.0117C149.407 10.9133 149.337 11.7096 149.185 12.3888C149.032 13.0796 148.809 13.6885 148.505 14.2155C148.2 14.7541 147.848 15.2225 147.449 15.6206C147.039 16.0187 146.558 16.4169 145.984 16.8267ZM139.172 10.0117C139.172 8.60656 138.632 7.64637 137.542 7.13115C136.452 6.61593 134.646 6.35831 132.102 6.35831V14.0164C133.673 14.0164 134.951 13.8993 135.936 13.6651C136.921 13.4309 137.706 13.0211 138.292 12.4356C138.879 11.8618 139.172 11.0539 139.172 10.0117ZM139.817 23.3841C139.817 22.2834 139.535 21.4286 138.961 20.8314C138.386 20.2342 137.577 19.8009 136.498 19.555C135.432 19.3091 133.954 19.1803 132.09 19.1803V27.8454C134.693 27.8454 136.639 27.5176 137.905 26.8735C139.183 26.2061 139.817 25.0468 139.817 23.3841Z" fill="white"/>
<path d="M170.758 0C174.733 0 178.133 0.819672 180.935 2.44731C183.737 4.08665 185.144 5.81967 185.144 7.65808C185.144 8.16159 185.039 8.58314 184.816 8.93443C184.593 9.28571 184.335 9.53162 184.007 9.68384C183.69 9.83607 183.35 9.90632 182.975 9.90632C182.377 9.90632 181.474 9.60187 180.267 8.98127C179.059 8.36066 177.722 7.75176 176.257 7.13115C174.791 6.51054 173.431 6.20609 172.2 6.20609C170.23 6.20609 169.245 7.00234 169.245 8.60656C169.245 9.11007 169.398 9.57845 169.726 10.0351C170.043 10.4918 170.559 10.9602 171.25 11.4403C171.954 11.9204 172.634 12.3536 173.302 12.7166C173.97 13.0796 174.885 13.5831 176.057 14.192C177.23 14.8126 178.215 15.3513 179.012 15.8197C181.58 17.2834 183.385 18.6885 184.429 20.0234C185.461 21.3583 185.988 22.8923 185.988 24.6253C185.988 31.534 181.322 34.9883 172.001 34.9883C170.16 34.9883 168.378 34.8009 166.654 34.4379C164.931 34.0749 163.43 33.5831 162.14 32.986C160.851 32.3888 159.713 31.7213 158.728 30.9836C157.744 30.2459 157.005 29.4965 156.501 28.7354C155.997 27.9742 155.75 27.2482 155.75 26.5808C155.75 25.8431 155.997 25.2225 156.477 24.7073C156.958 24.192 157.673 23.9344 158.611 23.9344C159.315 23.9344 161.003 24.3794 163.676 25.2576C166.349 26.1475 168.507 26.5808 170.148 26.5808C171.649 26.5808 172.399 26.0656 172.399 25.0234C172.399 24.719 172.341 24.4496 172.224 24.192C172.106 23.9461 171.907 23.6885 171.626 23.4426C171.344 23.1967 171.028 22.9625 170.676 22.74C170.324 22.5176 169.843 22.2482 169.222 21.9087C168.601 21.5808 167.991 21.2412 167.37 20.9016C166.748 20.5621 165.939 20.1288 164.942 19.6019C163.934 19.0632 162.973 18.5363 162.035 17.9977C160.804 17.2951 159.737 16.4286 158.846 15.3981C157.955 14.3677 157.321 13.3372 156.911 12.3185C156.512 11.2998 156.313 10.3513 156.313 9.48478C156.313 6.68618 157.568 4.3911 160.077 2.62295C162.586 0.88993 166.138 0 170.758 0Z" fill="white"/>
<path d="M11.4433 26.7213C11.4433 29.3091 10.9626 31.1944 10.0011 32.3888C9.03971 33.5831 7.57413 34.1803 5.62784 34.1803C3.70499 34.1803 2.28631 33.6651 1.37179 32.6347C0.457262 31.6042 0 29.7658 0 27.1194V6.08899C0 2.10773 1.87595 0.128805 5.62784 0.128805C7.55068 0.128805 9.00454 0.491803 9.97768 1.2178C10.9508 1.94379 11.4433 3.4192 11.4433 5.64403V26.7213Z" fill="white"/>
<path d="M36.5223 26.7213C36.5223 28.6066 36.2878 30.1054 35.8306 31.2178C35.3616 32.3302 34.7284 33.103 33.9194 33.5246C33.1104 33.9578 32.0318 34.1686 30.7069 34.1686C28.7489 34.1686 27.3302 33.6417 26.4508 32.5995C25.5715 31.5574 25.1142 29.7073 25.079 27.0609L24.9852 8.72365H20.7526C18.6657 8.72365 17.0945 8.39578 16.0511 7.72834C15.0076 7.06089 14.4799 5.88993 14.4799 4.20375C14.4799 3.1733 14.691 2.36534 15.1014 1.76815C15.5117 1.17096 16.1331 0.749414 16.9656 0.503512C17.798 0.257611 18.9001 0.128805 20.2954 0.128805H41.5874C43.4399 0.128805 44.7882 0.456674 45.6206 1.12412C46.4531 1.79157 46.8635 2.9274 46.8635 4.55503C46.8635 5.64403 46.6172 6.49883 46.1365 7.11944C45.6558 7.72834 45.0227 8.14988 44.2254 8.38407C43.4281 8.61827 42.3964 8.73536 41.1418 8.73536H36.5106V26.7213H36.5223Z" fill="white"/>
</svg>
